<svg width="17" height="18" viewBox="0 0 17 18" fill="none" xmlns="http://www.w3.org/2000/svg">
<path d="M6.375 9.53125L7.96875 11.125L10.625 7.40625M14.875 9C14.875 9.89817 14.4288 10.6929 13.7466 11.1732C13.8201 11.593 13.7913 12.0245 13.6627 12.4309C13.5341 12.8372 13.3095 13.2067 13.0078 13.5078C12.7067 13.8095 12.3372 14.0341 11.9309 14.1627C11.5245 14.2913 11.093 14.3201 10.6732 14.2466C10.4282 14.5955 10.1029 14.8801 9.72457 15.0766C9.34628 15.273 8.92624 15.3753 8.5 15.375C7.60183 15.375 6.80708 14.9288 6.32683 14.2466C5.90696 14.3201 5.47557 14.2913 5.06918 14.1627C4.66279 14.0341 4.29336 13.8094 3.99217 13.5078C3.69051 13.2067 3.46586 12.8372 3.33726 12.4309C3.20866 12.0245 3.17988 11.593 3.25338 11.1732C2.90454 10.9282 2.61986 10.6029 2.42344 10.2246C2.22702 9.84628 2.12465 9.42624 2.125 9C2.125 8.10183 2.57125 7.30708 3.25338 6.82683C3.17988 6.40696 3.20866 5.97555 3.33726 5.56915C3.46586 5.16275 3.69051 4.79333 3.99217 4.49217C4.29336 4.19055 4.66279 3.96594 5.06918 3.83734C5.47557 3.70874 5.90696 3.67994 6.32683 3.75338C6.57181 3.40458 6.8972 3.11993 7.27547 2.92352C7.65375 2.72711 8.07377 2.62471 8.5 2.625C9.39817 2.625 10.1929 3.07125 10.6732 3.75338C11.093 3.67994 11.5244 3.70874 11.9308 3.83734C12.3372 3.96594 12.7066 4.19055 13.0078 4.49217C13.3094 4.79336 13.5341 5.16279 13.6627 5.56918C13.7913 5.97557 13.8201 6.40696 13.7466 6.82683C14.0955 7.07176 14.3801 7.39715 14.5766 7.77543C14.773 8.15372 14.8753 8.57376 14.875 9Z" stroke="#EEEEEC" stroke-width="1.5" stroke-linecap="round" stroke-linejoin="round"/>
</svg>
