<svg width="44" height="44" viewBox="0 0 44 44" fill="none" xmlns="http://www.w3.org/2000/svg">
<g opacity="1">
<path d="M29.5199 32.8722L24.5768 37.6475C23.7188 38.5069 22.5363 38.8644 21.2328 38.8644C19.9293 38.8644 18.7481 38.5069 17.8888 37.6475L9.94676 29.656C9.09426 28.7967 8.65839 27.5427 8.65839 26.2392C8.65839 24.9302 9.09426 23.7477 9.94676 22.8952L17.8668 14.8597C18.7193 14.0085 19.9293 13.6785 21.2328 13.6785C22.5363 13.6785 23.7188 14.036 24.5768 14.8954L29.5199 19.6708C30.4645 20.6168 32.0265 20.5824 33.0069 19.5993C33.9804 18.6189 34.0175 17.0583 33.0715 16.1123L28.2961 11.2847C27.0573 10.0595 25.5021 9.21528 23.8123 8.82753L28.3319 4.24466C29.2779 3.30003 29.249 1.73803 28.2673 0.757655C27.2855 -0.22272 25.7249 -0.25297 24.7803 0.686155L6.26039 19.206C4.46326 21.01 3.52551 23.4864 3.52551 26.2364C3.52551 28.9809 4.46464 31.5439 6.26039 33.3424L14.2313 41.3339C16.0284 43.131 18.5144 43.9973 21.2644 43.9973C24.0075 43.9973 26.4908 43.0582 28.2893 41.2624L33.0729 36.421C34.0189 35.4819 33.9818 33.9227 33.0014 32.9409C32.021 31.9592 30.459 31.9234 29.5213 32.8694L29.5199 32.8722ZM38.1549 23.8549H19.5498C18.2683 23.8549 17.2233 24.9563 17.2233 26.3175C17.2233 27.6802 18.2683 28.7884 19.5498 28.7884H38.1549C39.4378 28.7884 40.4828 27.6788 40.4828 26.3175C40.4828 24.9577 39.4378 23.8549 38.1549 23.8549Z" fill="#EEEEEC"/>
</g>
</svg>
