<svg width="40" height="38" viewBox="0 0 40 38" fill="none" xmlns="http://www.w3.org/2000/svg">
<path d="M20.0002 0C8.95578 0 0 8.72182 0 19.4811C0 28.0883 5.73063 35.3907 13.6773 37.9666C14.6769 38.147 15.0439 37.544 15.0439 37.0294C15.0439 36.5649 15.0252 35.0303 15.0167 33.4026C9.45266 34.5809 8.27859 31.104 8.27859 31.104C7.36875 28.8523 6.05781 28.2534 6.05781 28.2534C4.24328 27.0444 6.19469 27.0693 6.19469 27.0693C8.20297 27.2066 9.26047 29.0768 9.26047 29.0768C11.0444 32.0549 13.9394 31.194 15.0806 30.6961C15.2602 29.4372 15.7784 28.5776 16.3505 28.0912C11.9081 27.5987 7.23828 25.9282 7.23828 18.4636C7.23828 16.3367 8.01953 14.5988 9.29891 13.2345C9.09125 12.7439 8.40672 10.7626 9.49266 8.0791C9.49266 8.0791 11.1722 7.55555 14.9942 10.076C16.5895 9.64442 18.3005 9.428 20.0002 9.42054C21.6998 9.428 23.4122 9.64427 25.0105 10.076C28.8278 7.5557 30.505 8.07925 30.505 8.07925C31.5936 10.7624 30.9087 12.744 30.7011 13.2345C31.9834 14.5988 32.7594 16.3367 32.7594 18.4636C32.7594 25.946 28.0806 27.5935 23.627 28.0758C24.3444 28.6803 24.9836 29.8659 24.9836 31.6834C24.9836 34.2899 24.9605 36.3878 24.9605 37.0294C24.9605 37.5479 25.3205 38.1553 26.3342 37.9639C34.2766 35.3852 40 28.0855 40 19.4812C40 8.72182 31.0455 0 20.0002 0ZM7.49078 27.7512C7.44672 27.848 7.29031 27.877 7.14797 27.8105C7.00281 27.7471 6.92141 27.6151 6.96828 27.518C7.01141 27.4183 7.16812 27.3905 7.31281 27.4573C7.45812 27.5209 7.54094 27.6541 7.49078 27.7512ZM8.47453 28.6062C8.37922 28.6923 8.19266 28.6523 8.06609 28.5162C7.93531 28.3805 7.91078 28.1988 8.0075 28.1114C8.10594 28.0253 8.28672 28.0656 8.41781 28.2014C8.54875 28.3388 8.57406 28.5191 8.47453 28.6062ZM9.14953 29.7002C9.02687 29.7831 8.82656 29.7053 8.70266 29.5321C8.58016 29.359 8.58016 29.1512 8.70531 29.068C8.82953 28.9847 9.02688 29.0596 9.15234 29.2316C9.27453 29.4077 9.27453 29.6154 9.14937 29.7003L9.14953 29.7002ZM10.2908 30.9672C10.1813 31.085 9.94766 31.0533 9.77672 30.8926C9.60187 30.7356 9.55328 30.5127 9.66328 30.3949C9.77422 30.2768 10.0091 30.31 10.1813 30.4695C10.3547 30.6263 10.4078 30.8508 10.2908 30.9672ZM11.7661 31.3949C11.7177 31.5475 11.4927 31.6169 11.2662 31.5521C11.04 31.4853 10.892 31.3066 10.9377 31.1524C10.9847 30.9987 11.2106 30.9266 11.4388 30.996C11.6647 31.0623 11.8131 31.2396 11.7661 31.3949ZM13.4448 31.5764C13.4505 31.737 13.2584 31.8702 13.0206 31.8732C12.7816 31.8784 12.588 31.7484 12.5853 31.5901C12.5853 31.428 12.7731 31.2961 13.0123 31.2921C13.2502 31.2876 13.4448 31.4166 13.4448 31.5764ZM15.0941 31.5148C15.1225 31.6715 14.9573 31.8326 14.7211 31.8755C14.4891 31.9167 14.2741 31.8199 14.2445 31.6645C14.2158 31.5038 14.3841 31.3428 14.6158 31.3013C14.8523 31.2612 15.0639 31.3554 15.0941 31.5148Z" fill="#EEEEEC"/>
</svg>
