<svg width="32" height="32" viewBox="0 0 32 32" fill="none" xmlns="http://www.w3.org/2000/svg">
<path d="M7.16286 31.9996H0.528571V10.6354H7.16286V31.9996ZM3.84214 7.72106C1.72071 7.72106 0 5.96392 0 3.84249C1.51843e-08 2.82349 0.404796 1.84623 1.12534 1.12569C1.84588 0.405147 2.82314 0.000350952 3.84214 0.000350952C4.86114 0.000350952 5.83841 0.405147 6.55895 1.12569C7.27949 1.84623 7.68429 2.82349 7.68429 3.84249C7.68429 5.96392 5.96286 7.72106 3.84214 7.72106ZM31.9929 31.9996H25.3729V21.5996C25.3729 19.1211 25.3229 15.9425 21.9236 15.9425C18.4743 15.9425 17.9457 18.6353 17.9457 21.4211V31.9996H11.3186V10.6354H17.6814V13.5496H17.7743C18.66 11.8711 20.8236 10.0996 24.0514 10.0996C30.7657 10.0996 32 14.5211 32 20.2639V31.9996H31.9929Z" fill="#EEEEEC"/>
</svg>